<svg viewBox="0 0 18 14" xmlns="http://www.w3.org/2000/svg"><path d="M17.125 1.967a6.678 6.678 0 01-1.918.515A3.322 3.322 0 0016.672.646a6.575 6.575 0 01-2.114.805A3.322 3.322 0 0012.126.398a3.33 3.33 0 00-3.33 3.332c0 .258.031.516.082.764A9.465 9.465 0 012.01 1.008a3.307 3.307 0 00-.453 1.681c0 1.157.587 2.176 1.484 2.776a3.36 3.36 0 01-1.506-.424v.041c0 1.62 1.145 2.961 2.67 3.27a3.527 3.527 0 01-.877.113 4.43 4.43 0 01-.629-.05 3.336 3.336 0 003.113 2.31 6.675 6.675 0 01-4.134 1.423c-.28 0-.537-.01-.805-.04a9.43 9.43 0 005.115 1.494c6.125 0 9.477-5.075 9.477-9.479 0-.144 0-.289-.01-.434a7.172 7.172 0 001.67-1.722z" fill="currentColor"/></svg>