<svg viewBox="0 0 16 18" xmlns="http://www.w3.org/2000/svg"><path d="M10.584 3.148c.782 0 1.42.638 1.423 1.423v12.006c0 .785-.638 1.423-1.423 1.423H2.216a1.424 1.424 0 0 1-1.423-1.423V4.571c0-.785.638-1.423 1.423-1.423h8.368zm-.004.995H2.213a.428.428 0 0 0-.428.428v12.002c0 .236.192.428.428.428h8.367a.428.428 0 0 0 .428-.428V4.571a.428.428 0 0 0-.428-.428zM13.784 0c.785 0 1.423.638 1.423 1.423v12.006c0 .785-.638 1.423-1.423 1.423a.496.496 0 0 1-.498-.498c0-.276.221-.497.498-.497a.428.428 0 0 0 .427-.428V1.423a.428.428 0 0 0-.427-.428H5.416a.428.428 0 0 0-.428.428.496.496 0 0 1-.497.498.496.496 0 0 1-.498-.498C3.993.638 4.631 0 5.416 0h8.368z" fill="currentColor" fill-rule="nonzero"/></svg>