<svg viewBox="0 0 16 18" xmlns="http://www.w3.org/2000/svg"><path d="M14.65 4.679c.274 0 .492.222.496.493v12.335c0 .27-.219.493-.493.493H3.686a2.837 2.837 0 0 1-2.832-2.832V2.832A2.837 2.837 0 0 1 3.686 0h10.967a.493.493 0 1 1 0 .986H3.686c-1.02 0-1.846.83-1.846 1.847 0 1.02.83 1.846 1.846 1.846H14.65zm-12.81.304v10.184c0 1.02.83 1.847 1.846 1.847h10.47V5.669H3.686c-.704 0-1.35-.26-1.846-.686zm11.263-2.599a.493.493 0 1 1 0 .986H3.842a.493.493 0 1 1 0-.986h9.261z" fill="currentColor" fill-rule="nonzero"/></svg>