<svg viewBox="0 0 18 18" xmlns="http://www.w3.org/2000/svg"><path d="M15.78.916H2.22C.998.916 0 1.91 0 3.136v9.6c0 1.222.994 2.22 2.22 2.22h6.275v1.12H5.367a.503.503 0 0 0-.504.504c0 .28.224.504.504.504h7.266c.28 0 .505-.224.505-.504a.503.503 0 0 0-.505-.505H9.505v-1.12h6.275c1.222 0 2.22-.993 2.22-2.22v-9.6a2.22 2.22 0 0 0-2.22-2.22zM2.22 1.925h13.564c.665 0 1.21.542 1.21 1.21v8.188H1.01V3.136A1.21 1.21 0 0 1 2.22 1.925zm14.77 10.407v.404c0 .665-.541 1.21-1.21 1.21H2.22a1.213 1.213 0 0 1-1.21-1.21v-.404h15.98zM7.725 4.053l3.382 1.691a.5.5 0 0 1 0 .895l-3.382 1.69A.5.5 0 0 1 7 7.884V4.5a.5.5 0 0 1 .724-.448z" fill="currentColor" fill-rule="nonzero"/></svg>